<svg width="25" height="25" viewBox="0 0 25 25" fill="none" xmlns="http://www.w3.org/2000/svg">
<g clip-path="url(#clip0_10_782)">
<path d="M3.72913 22.0792H18.5823L17.8729 19.7823L19.5698 21.2385L21.125 22.6323L23.9583 25V2.57812C23.8875 1.18437 22.6875 0 21.2 0L3.73433 0.003125C2.24788 0.003125 1.04163 1.18958 1.04163 2.58333V19.5C1.04163 20.9698 2.24579 22.0792 3.72913 22.0792V22.0792ZM14.7166 5.91979L14.6823 5.93229L14.6948 5.91979H14.7166ZM6.76767 7.24167C8.67704 5.85208 10.4468 5.91875 10.4468 5.91875L10.5895 6.05937C8.25309 6.61667 7.19371 7.66042 7.19371 7.66042C7.19371 7.66042 7.47704 7.52187 7.97184 7.31042C11.1187 6.07292 14.5552 6.1625 17.7364 7.72917C17.7364 7.72917 16.675 6.75312 14.4823 6.12812L14.676 5.9375C14.9791 5.93854 16.5833 5.99479 18.3 7.25C18.3 7.25 20.2208 10.5312 20.2208 14.5625C20.1573 14.4854 19.0291 16.2979 16.126 16.3604C16.126 16.3604 15.6343 15.8042 15.2843 15.3187C16.9823 14.8312 17.6177 13.8562 17.6177 13.8562C17.0604 14.2073 16.552 14.4156 16.1395 14.624C15.5052 14.9031 14.8698 15.0406 14.2354 15.1812C11.2312 15.6687 9.54475 14.8531 7.951 14.2062L7.40621 13.9292C7.40621 13.9292 8.04059 14.9042 9.67079 15.3917C9.24267 15.8802 8.81871 16.4354 8.81871 16.4354C5.91663 16.3667 4.85829 14.5542 4.85829 14.5542C4.85829 10.5167 6.76767 7.24167 6.76767 7.24167V7.24167Z" fill="white"/>
<path d="M14.9042 13.3036C15.6448 13.3036 16.2479 12.6786 16.2479 11.9077C16.2479 11.1421 15.6479 10.5171 14.9042 10.5171V10.5202C14.1667 10.5202 13.5625 11.1431 13.5604 11.914C13.5604 12.6786 14.1635 13.3036 14.9042 13.3036Z" fill="white"/>
<path d="M10.0937 13.3036C10.8344 13.3036 11.4375 12.6786 11.4375 11.9077C11.4375 11.1421 10.8385 10.5171 10.0979 10.5171L10.0937 10.5202C9.35312 10.5202 8.75 11.1431 8.75 11.914C8.75 12.6786 9.35312 13.3036 10.0937 13.3036V13.3036Z" fill="white"/>
</g>
<defs>
<clipPath id="clip0_10_782">
<rect width="25" height="25" fill="white"/>
</clipPath>
</defs>
</svg>
