<svg width="25" height="25" viewBox="0 0 25 25" fill="none" xmlns="http://www.w3.org/2000/svg">
<g clip-path="url(#clip0_10_769)">
<path d="M24.9755 7.35007C24.917 6.02172 24.7022 5.1085 24.3945 4.31717C24.077 3.4772 23.5886 2.72518 22.9488 2.10002C22.3236 1.46513 21.5666 0.971793 20.7364 0.659308C19.9405 0.351593 19.032 0.136784 17.7037 0.0782166C16.3654 0.0146894 15.9406 0 12.5464 0C9.15216 0 8.72731 0.0146894 7.394 0.0732565C6.06566 0.131824 5.15244 0.346824 4.3613 0.654348C3.52114 0.971793 2.76912 1.46017 2.14396 2.10002C1.50907 2.72518 1.01593 3.48216 0.703253 4.3124C0.395538 5.1085 0.180729 6.01676 0.122162 7.34511C0.0586347 8.68338 0.0439453 9.10822 0.0439453 12.5024C0.0439453 15.8967 0.0586347 16.3215 0.117202 17.6548C0.175769 18.9832 0.390769 19.8964 0.698484 20.6877C1.01593 21.5277 1.50907 22.2797 2.14396 22.9049C2.76912 23.5398 3.5261 24.0331 4.35634 24.3456C5.15244 24.6533 6.0607 24.8681 7.38924 24.9267C8.72235 24.9854 9.14739 24.9999 12.5416 24.9999C15.9358 24.9999 16.3607 24.9854 17.694 24.9267C19.0223 24.8681 19.9355 24.6533 20.7267 24.3456C22.4068 23.696 23.7351 22.3677 24.3847 20.6877C24.6922 19.8916 24.9072 18.9832 24.9658 17.6548C25.0244 16.3215 25.0391 15.8967 25.0391 12.5024C25.0391 9.10822 25.0341 8.68338 24.9755 7.35007ZM22.7242 17.5571C22.6704 18.7781 22.4654 19.4374 22.2944 19.8769C21.8744 20.966 21.01 21.8304 19.9209 22.2505C19.4813 22.4214 18.8172 22.6265 17.6011 22.6801C16.2824 22.7389 15.887 22.7534 12.5513 22.7534C9.21569 22.7534 8.81526 22.7389 7.50141 22.6801C6.28047 22.6265 5.62116 22.4214 5.18162 22.2505C4.63964 22.0502 4.1463 21.7328 3.74587 21.3176C3.33075 20.9123 3.01331 20.4239 2.813 19.8819C2.64207 19.4424 2.43699 18.7781 2.38338 17.5621C2.32462 16.2435 2.31012 15.8478 2.31012 12.5122C2.31012 9.17652 2.32462 8.77609 2.38338 7.46243C2.43699 6.24149 2.64207 5.58218 2.813 5.14264C3.01331 4.60047 3.33075 4.10732 3.75083 3.7067C4.15603 3.29158 4.64441 2.97414 5.18658 2.77402C5.62612 2.60309 6.29039 2.39801 7.50637 2.34421C8.82499 2.28564 9.22065 2.27095 12.5561 2.27095C15.8967 2.27095 16.2922 2.28564 17.606 2.34421C18.827 2.39801 19.4863 2.60309 19.9258 2.77402C20.4678 2.97414 20.9611 3.29158 21.3616 3.7067C21.7767 4.11209 22.0941 4.60047 22.2944 5.14264C22.4654 5.58218 22.6704 6.24626 22.7242 7.46243C22.7828 8.78105 22.7975 9.17652 22.7975 12.5122C22.7975 15.8478 22.7828 16.2385 22.7242 17.5571Z" fill="white"/>
<path d="M12.5464 6.08029C9.00092 6.08029 6.12427 8.95676 6.12427 12.5025C6.12427 16.0481 9.00092 18.9246 12.5464 18.9246C16.0921 18.9246 18.9686 16.0481 18.9686 12.5025C18.9686 8.95676 16.0921 6.08029 12.5464 6.08029ZM12.5464 16.6683C10.2463 16.6683 8.38053 14.8028 8.38053 12.5025C8.38053 10.2021 10.2463 8.33656 12.5464 8.33656C14.8468 8.33656 16.7123 10.2021 16.7123 12.5025C16.7123 14.8028 14.8468 16.6683 12.5464 16.6683V16.6683Z" fill="white"/>
<path d="M20.7219 5.82637C20.7219 6.65432 20.0506 7.32565 19.2224 7.32565C18.3945 7.32565 17.7231 6.65432 17.7231 5.82637C17.7231 4.99823 18.3945 4.32709 19.2224 4.32709C20.0506 4.32709 20.7219 4.99823 20.7219 5.82637V5.82637Z" fill="white"/>
</g>
<defs>
<clipPath id="clip0_10_769">
<rect width="25" height="25" fill="white"/>
</clipPath>
</defs>
</svg>
