<svg width="132" height="32" viewBox="0 0 132 32" fill="none" xmlns="http://www.w3.org/2000/svg">
<path d="M43.916 25.216C46.364 25.216 47.786 24.352 49.082 22.966L47.318 21.184C46.328 22.102 45.446 22.66 44.006 22.66C41.846 22.66 40.352 20.86 40.352 18.7V18.664C40.352 16.504 41.882 14.74 44.006 14.74C45.284 14.74 46.238 15.28 47.228 16.162L48.992 14.128C47.84 12.976 46.382 12.184 44.024 12.184C40.154 12.184 37.454 15.118 37.454 18.7V18.736C37.454 22.354 40.208 25.216 43.916 25.216ZM51.0131 25H53.7491V21.436C53.7491 19.114 54.8651 18.034 56.6831 18.034H56.8271V15.172C55.1891 15.1 54.3071 15.982 53.7491 17.296V15.352H51.0131V25ZM62.7665 21.922L60.5705 15.352H57.6725L61.4525 25.036C61.2185 25.522 60.9845 25.666 60.4985 25.666C60.1385 25.666 59.6885 25.504 59.3285 25.288L58.4105 27.268C59.1125 27.682 59.8325 27.934 60.8405 27.934C62.4605 27.934 63.2885 27.196 64.0085 25.234L67.7165 15.352H64.8725L62.7665 21.922ZM69.3295 27.88H72.0655V23.74C72.7135 24.514 73.6135 25.18 75.0715 25.18C77.3575 25.18 79.4635 23.416 79.4635 20.194V20.158C79.4635 16.936 77.3215 15.172 75.0715 15.172C73.6315 15.172 72.7315 15.82 72.0655 16.738V15.352H69.3295V27.88ZM74.3695 22.858C73.0915 22.858 72.0295 21.796 72.0295 20.194V20.158C72.0295 18.556 73.0915 17.494 74.3695 17.494C75.6475 17.494 76.7275 18.556 76.7275 20.158V20.194C76.7275 21.814 75.6475 22.858 74.3695 22.858ZM84.734 25.162C85.652 25.162 86.318 24.946 86.894 24.604V22.408C86.48 22.642 86.03 22.75 85.544 22.75C84.95 22.75 84.662 22.444 84.662 21.814V17.692H86.93V15.352H84.662V12.886H81.926V15.352H80.774V17.692H81.926V22.264C81.926 24.496 83.078 25.162 84.734 25.162ZM93.417 25.216C96.423 25.216 98.655 22.966 98.655 20.194V20.158C98.655 17.368 96.423 15.172 93.453 15.172C90.447 15.172 88.215 17.422 88.215 20.194V20.23C88.215 23.02 90.447 25.216 93.417 25.216ZM93.453 22.858C91.941 22.858 90.915 21.616 90.915 20.194V20.158C90.915 18.718 91.851 17.53 93.417 17.53C94.929 17.53 95.955 18.772 95.955 20.194V20.23C95.955 21.67 95.019 22.858 93.453 22.858ZM100.924 25H103.696V21.148L105.154 19.636L109.06 25H112.39L107.026 17.746L112.174 12.4H108.772L103.696 17.908V12.4H100.924V25ZM117.812 25.216C119.558 25.216 120.836 24.55 121.754 23.416L120.188 22.03C119.414 22.732 118.766 23.02 117.848 23.02C116.624 23.02 115.76 22.372 115.49 21.13H122.204C122.222 20.86 122.24 20.626 122.24 20.41C122.24 17.674 120.764 15.172 117.542 15.172C114.734 15.172 112.772 17.44 112.772 20.194V20.23C112.772 23.182 114.914 25.216 117.812 25.216ZM115.454 19.42C115.67 18.178 116.39 17.368 117.542 17.368C118.694 17.368 119.414 18.196 119.576 19.42H115.454ZM127.537 25.162C128.455 25.162 129.121 24.946 129.697 24.604V22.408C129.283 22.642 128.833 22.75 128.347 22.75C127.753 22.75 127.465 22.444 127.465 21.814V17.692H129.733V15.352H127.465V12.886H124.729V15.352H123.577V17.692H124.729V22.264C124.729 24.496 125.881 25.162 127.537 25.162Z" fill="white"/>
<rect x="0.5" width="32" height="32" rx="10" fill="url(#paint0_linear_2_99)"/>
<circle cx="16.5" cy="16" r="8" stroke="#1B1A21" stroke-width="2"/>
<defs>
<linearGradient id="paint0_linear_2_99" x1="10.9727" y1="5.58767e-07" x2="37.7552" y2="5.26436" gradientUnits="userSpaceOnUse">
<stop stop-color="#EB1484"/>
<stop offset="0.9999" stop-color="#C91CC3"/>
<stop offset="1" stop-color="#C81CC5"/>
<stop offset="1" stop-color="#C81CC5"/>
</linearGradient>
</defs>
</svg>
